<svg width="300" height="80" version="1.1" viewBox="0 0 300 80" xmlns="http://www.w3.org/2000/svg">
 <defs>
  <style>.a{fill:#ffffff;}.b{fill:#ffffff;}</style>
 </defs>
 <title>raksti-sponsor-logos</title>
 <g fill="#fff">
  <path class="a" d="m150 26.6h0.11 0.21a25.4 25.4 0 0 1 24.4 18.4l123-0.07-2.73-9.08h-119s-7.57-8-18.4-11.1a191 191 0 0 1 36.9-3.5c19.1 0 48.2 9.88 63.2 9.88 21 0 33.5-5.89 33.5-5.89l-4-12.9s-10.7 9.88-29.5 9.88c-32.2 0-39.5-5.44-63.2-5.39-27 0.01-45.1 5.18-45.1 5.18v-0.05s-18.2-5.27-45.1-5.27c-23.2 0-31 5.39-63.2 5.39-18.8 0-29.3-9.44-29.3-9.44l-4 12.5s12.4 5.89 33.4 5.89c15 0 44.1-9.88 63.2-9.88a191 191 0 0 1 37 3.52 42.2 42.2 0 0 0-17.9 11.1h-119l-2.81 9.13 124 0.11a25.2 25.2 0 0 1 24.2-18.4z"/>
  <path class="b" d="M6.58,55.5c0,3.6.11,6.48,1.37,8.77,1.26-2.32,1.37-5.18,1.37-8.77V50.67h5.55v5.08c0,4.78-.7,8.55-4,11.75H5c-3.25-3.2-4-7-4-11.75V50.67H6.58Z"/>
  <polygon class="b" points="17.5 50.7 28.9 50.7 28.9 53.9 23.1 53.9 23.1 56.7 28.7 56.7 28.7 59.9 23.1 59.9 23.1 64.3 29.2 64.3 29.2 67.5 17.5 67.5"/>
  <path class="b" d="m37 50.7a24.8 24.8 0 0 1 3.14 4.44v-4.44h5.54v16.8h-5.54v-3.3a12.7 12.7 0 0 0-2.73-7.86v11.2h-5.59v-16.8z"/>
  <polygon class="b" points="48 50.7 60.1 50.7 60.1 53.8 56.8 53.8 56.8 67.5 51.3 67.5 51.3 53.8 48 53.8"/>
  <path class="b" d="M70.74,55.17c0-1-.52-1.53-1.7-1.53-.85,0-1.44.34-1.44.91,0,.91,2,1.85,5.17,3.52C75.21,59.36,76,60.77,76,62.84c0,3.25-2.33,4.88-7,4.88-4.92,0-7.06-1.55-7.06-4.88v-2H67.6v1.87c0,1.23.37,1.87,1.48,1.87a1.19,1.19,0,0,0,1.33-1.26c0-1.38-1-2.1-2.77-3.1-3.14-1.8-5.65-3-5.65-5.52s2.44-4.24,7-4.24c5.1,0,6.87,1.38,6.87,4.63v1.08h-5.1Z"/>
  <path class="b" d="M84.42,57V53.62h1.11c1.44,0,2,.49,2,1.65S87.11,57,85.41,57ZM79,50.67V67.49H84.6V59.9h1.81c4.69,0,6.58-1,6.58-4.16,0-3.72-1.59-5.08-6.51-5.08Z"/>
  <rect class="b" x="94.8" y="50.7" width="5.58" height="16.8"/>
  <polygon class="b" points="110 50.7 110 64.3 115 64.3 115 67.5 104 67.5 104 50.7"/>
  <path class="b" d="M125.44,55.17c0-1-.52-1.53-1.7-1.53-.85,0-1.44.34-1.44.91,0,.91,2,1.85,5.17,3.52,2.44,1.28,3.25,2.69,3.25,4.75,0,3.25-2.33,4.88-7,4.88-4.92,0-7.06-1.55-7.06-4.88v-2h5.66v1.87c0,1.23.37,1.87,1.48,1.87a1.19,1.19,0,0,0,1.33-1.26c0-1.38-1-2.1-2.77-3.1-3.14-1.8-5.66-3-5.66-5.52s2.44-4.24,7-4.24c5.1,0,6.87,1.38,6.87,4.63v1.08h-5.1Z"/>
  <path class="b" d="m147 61.6a18.6 18.6 0 0 1 1.37-7.42 18.5 18.5 0 0 1 1.37 7.42zm-5.54 5.94h5.54v-2.79h2.74v2.79h5.58v-3.3c0-5.74-1.11-10.2-4.44-13.5h-5c-3.33 3.35-4.44 7.76-4.44 13.5z"/>
  <path class="b" d="m164 63.1c0 1 0.07 1.48 1.37 1.48s1.4-0.54 1.4-1.77v-12.1h5.58v11.4c0 3.84-1.59 5.64-7 5.64s-6.9-1.79-6.9-5.64v-11.4h5.58v12.4z"/>
  <path class="b" d="M182,50.44c5.1,0,7,1.63,7,5.3v.69h-5.65v-1.2c0-1.09-.07-1.58-1.37-1.58s-1.37.44-1.37,1.45v7.42c0,1.33.07,2,1.59,2s1.63-.71,1.63-2.14V60.13h-1.48V57.37H189v10.1h-2.37l-.7-.69a8.58,8.58,0,0,1-4.33.93c-5.06,0-6.65-1.9-6.65-5.64v-6C174.93,52.22,176.52,50.44,182,50.44Z"/>
  <path class="b" d="M200.62,55.17c0-1-.52-1.53-1.7-1.53-.85,0-1.44.34-1.44.91,0,.91,2,1.85,5.18,3.52,2.44,1.28,3.25,2.69,3.25,4.75,0,3.25-2.33,4.88-7,4.88-4.92,0-7.06-1.55-7.06-4.88v-2h5.65v1.87c0,1.23.37,1.87,1.48,1.87a1.19,1.19,0,0,0,1.33-1.26c0-1.38-1-2.1-2.77-3.1-3.14-1.8-5.65-3-5.65-5.52s2.44-4.24,7-4.24c5.1,0,6.87,1.38,6.87,4.63v1.08h-5.1Z"/>
  <polygon class="b" points="208 50.7 220 50.7 220 53.8 217 53.8 217 67.5 211 67.5 211 53.8 208 53.8"/>
  <path class="b" d="M230.52,55.17c0-1-.52-1.53-1.7-1.53-.85,0-1.44.34-1.44.91,0,.91,2,1.85,5.18,3.52,2.44,1.28,3.25,2.69,3.25,4.75,0,3.25-2.33,4.88-7,4.88-4.92,0-7.06-1.55-7.06-4.88v-2h5.65v1.87c0,1.23.37,1.87,1.48,1.87a1.19,1.19,0,0,0,1.33-1.26c0-1.38-1-2.1-2.77-3.1-3.14-1.8-5.66-3-5.66-5.52s2.44-4.24,7-4.24c5.1,0,6.87,1.38,6.87,4.63v1.08h-5.1Z"/>
  <path class="b" d="m246 59.6c-0.44 0.29-0.92 0.54-1.4 0.81v7.07h-5.47v-16.8h5.47v6.58c1.44-1 2.66-3.35 2.81-6.58h5.58a4.66 4.66 0 0 0 0 0.47 8.44 8.44 0 0 1-2.51 6.14c1.19 1 2.48 4.34 2.48 9.09v1.13h-5.58c-0.05-4.22-0.27-6.83-1.38-7.89z"/>
  <path class="b" d="M261,55.59V55.1c0-1,.08-1.45,1.37-1.45s1.37.49,1.37,1.58v7.71c0,1.11-.07,1.6-1.37,1.6S261,64.07,261,63.06V55.59Zm-5.65.49v6c0,3.87,1.59,5.64,7,5.64s7-1.77,7-5.64v-6c0-3.87-1.59-5.64-7-5.64S255.39,52.22,255.39,56.09Z"/>
  <polygon class="b" points="278 50.7 278 64.3 284 64.3 284 67.5 273 67.5 273 50.7"/>
  <path class="b" d="m291 61.6a18.5 18.5 0 0 1 1.37-7.42 18.5 18.5 0 0 1 1.37 7.42zm-5.55 5.94h5.55v-2.79h2.73v2.79h5.58v-3.3c0-5.74-1.11-10.2-4.43-13.5h-5c-3.32 3.35-4.44 7.76-4.44 13.5z"/>
 </g>
</svg>
